<?xml version="1.0" encoding="UTF-8"?>
<svg xmlns="http://www.w3.org/2000/svg"
 viewBox="0 0 607 324"
 preserveAspectRatio="xMidYMid meet"
 overflow="visible">

<defs>
  <!--
    Neon tube filter: creates a glowing tube look with bright hot core + layered bloom.
    Applied to the fill color, so when SMIL switches to green the bloom also goes green.
  -->
  <filter id="neon-glow" x="-70%" y="-70%" width="240%" height="240%" color-interpolation-filters="sRGB">
    <!-- Outer diffuse haze: very wide, low intensity bloom -->
    <feGaussianBlur in="SourceGraphic" stdDeviation="20" result="haze"/>
    <!-- Mid bloom: medium spread -->
    <feGaussianBlur in="SourceGraphic" stdDeviation="7" result="bloom"/>
    <!-- Inner tight halo: just outside the letter strokes -->
    <feGaussianBlur in="SourceGraphic" stdDeviation="2.5" result="halo"/>
    <!-- Bright white-hot core: boost all color channels toward white.
         Gives the illusion of a tube lit from within.
         slope=0.12 intercept=0.9 → any colored pixel becomes near-white -->
    <feColorMatrix in="SourceGraphic" type="matrix"
      values="0.12 0    0    0 0.9
              0    0.12 0    0 0.9
              0    0    0.12 0 0.9
              0    0    0    1 0" result="white-core"/>
    <feGaussianBlur in="white-core" stdDeviation="0.6" result="core"/>
    <!-- Composite back-to-front: haze behind, bright core on top -->
    <feMerge>
      <feMergeNode in="haze"/>
      <feMergeNode in="bloom"/>
      <feMergeNode in="halo"/>
      <feMergeNode in="SourceGraphic"/>
      <feMergeNode in="core"/>
    </feMerge>
  </filter>
</defs>

<g transform="translate(0,324) scale(0.1,-0.1)"
fill="#ff00c0" stroke="none" filter="url(#neon-glow)">

  <!--
    FLICKER SEQUENCE (8s cycle, two flicker bursts):
    Burst 1 at ~4.5s: off → GREEN flash → off → pink (normal)
    Burst 2 at ~7s:   off → GREEN flash → off → pink (normal)
    calcMode="discrete" makes transitions instant (realistic neon snap, not fade)
  -->
  <animate
    attributeName="opacity"
    values="1;1;0.06;1;0.04;1;1;1;0.06;1;0.04;1;1"
    keyTimes="0;0.55;0.57;0.59;0.605;0.625;0.80;0.875;0.885;0.905;0.915;0.93;1"
    dur="8s"
    repeatCount="indefinite"
    calcMode="discrete"/>

  <animate
    attributeName="fill"
    values="#ff00c0;#ff00c0;#ff00c0;#39ff14;#39ff14;#ff00c0;#ff00c0;#ff00c0;#ff00c0;#39ff14;#39ff14;#ff00c0;#ff00c0"
    keyTimes="0;0.55;0.57;0.59;0.605;0.625;0.80;0.875;0.885;0.905;0.915;0.93;1"
    dur="8s"
    repeatCount="indefinite"
    calcMode="discrete"/>

<path d="M3320 2857 c-3 -3 -18 -7 -35 -10 -38 -5 -65 -16 -87 -34 -9 -8 -22
-12 -29 -7 -7 4 -10 3 -6 -2 3 -5 -14 -31 -38 -58 -24 -26 -49 -63 -55 -82
-12 -35 -35 -46 -38 -19 -1 8 -3 22 -4 30 -1 8 -5 15 -8 15 -8 0 -35 58 -35
74 0 15 -118 46 -178 46 -44 0 -71 -7 -117 -30 -33 -17 -60 -35 -60 -41 0 -6
-7 -17 -15 -26 -8 -8 -13 -19 -9 -24 3 -6 1 -15 -4 -22 -14 -17 -35 -229 -27
-285 3 -26 13 -69 21 -95 9 -26 14 -54 11 -61 -3 -8 -1 -18 4 -23 5 -5 13 -29
18 -53 13 -67 35 -144 42 -150 3 -3 10 -16 14 -30 4 -14 14 -33 22 -42 8 -9
12 -22 8 -28 -4 -7 -3 -15 2 -19 11 -7 73 -128 73 -142 0 -5 9 -18 20 -29 11
-11 23 -34 27 -50 3 -17 9 -30 14 -30 5 0 9 -7 9 -16 0 -8 11 -30 25 -48 14
-18 25 -36 25 -39 0 -11 34 -47 44 -47 5 0 17 -9 26 -20 34 -39 144 -22 187
29 12 14 25 37 28 52 4 15 12 30 19 32 8 3 16 21 20 40 4 19 13 40 21 47 8 7
15 19 15 27 0 8 14 35 30 60 17 24 30 48 30 54 0 5 5 9 10 9 6 0 10 5 10 11 0
6 17 45 37 87 20 42 38 84 39 92 1 8 14 47 29 85 15 39 31 86 36 105 14 61 38
140 45 151 3 6 7 27 9 47 1 20 6 63 10 95 4 32 4 57 -1 57 -5 0 -9 10 -10 23
-1 30 -12 80 -24 111 -7 19 -6 26 3 26 8 0 9 3 1 8 -6 4 -16 23 -23 42 -15 44
-87 100 -138 107 -21 3 -40 3 -43 0z m25 -273 c18 -28 28 -141 14 -150 -5 -3
-9 -16 -9 -29 0 -13 -4 -27 -10 -30 -5 -3 -10 -18 -10 -32 0 -24 -30 -137 -51
-188 -4 -11 -10 -33 -14 -50 -3 -16 -14 -41 -23 -55 -9 -14 -18 -34 -20 -45
-2 -11 -5 -24 -7 -30 -2 -5 -6 -20 -10 -32 -4 -13 -11 -23 -16 -23 -5 0 -9 -6
-9 -14 0 -24 -51 -110 -81 -137 -16 -15 -29 -31 -29 -37 0 -15 -43 -27 -48
-13 -2 6 -11 11 -20 11 -13 0 -14 2 -3 9 10 7 9 11 -5 22 -11 8 -20 21 -22 29
-2 8 -9 22 -16 30 -7 8 -23 44 -36 80 -13 36 -31 76 -40 90 -10 14 -15 31 -13
38 3 6 0 12 -6 12 -6 0 -11 8 -11 18 0 9 -9 40 -19 67 -10 28 -22 67 -25 89
-4 21 -13 53 -22 71 -17 37 -20 117 -6 195 6 30 8 58 6 61 -6 10 21 29 45 34
24 4 51 -29 53 -67 1 -12 5 -28 10 -34 4 -6 5 -26 2 -45 -10 -67 -11 -74 -14
-76 -1 -2 -4 -7 -5 -13 -1 -5 -4 -13 -5 -17 -6 -20 -1 -106 7 -112 4 -3 13
-15 19 -26 6 -11 25 -30 42 -41 26 -18 39 -20 68 -14 57 13 94 31 94 46 0 8 7
14 15 14 8 0 12 6 9 14 -3 8 -1 17 5 21 6 3 11 21 11 40 0 18 6 35 13 38 9 3
9 7 0 18 -8 10 -9 28 -2 64 21 108 33 140 62 164 16 14 35 30 41 37 12 11 36
20 62 23 7 0 19 -11 29 -25z"/>
<path d="M5500 1292 c-8 -3 -21 -13 -28 -24 -7 -10 -19 -18 -25 -18 -13 0 -35
-44 -43 -86 -3 -15 -9 -34 -13 -43 -5 -9 -12 -36 -16 -61 -4 -25 -13 -63 -20
-86 -8 -23 -16 -59 -18 -80 -5 -39 -31 -138 -70 -269 -21 -69 -34 -97 -70
-147 -21 -30 -15 -91 11 -126 31 -40 128 -34 139 8 3 11 9 20 13 20 10 0 40
80 40 108 0 25 30 144 39 153 3 4 43 9 89 13 l82 6 0 -25 c0 -14 5 -25 11 -25
5 0 7 -5 3 -11 -10 -17 -7 -130 5 -176 12 -45 30 -55 118 -69 39 -6 43 -4 52
19 5 14 14 26 20 28 19 7 19 70 1 148 -10 42 -21 113 -25 158 -3 45 -12 107
-20 138 -8 30 -14 59 -13 63 0 4 -2 14 -5 22 -4 8 -13 40 -21 70 -8 30 -21 75
-30 100 -10 25 -18 50 -19 55 -2 6 -6 15 -10 22 -4 6 -5 17 -2 25 3 8 -10 20
-34 32 -22 10 -42 25 -45 32 -3 8 -15 14 -26 14 -12 0 -29 4 -38 9 -9 4 -24 6
-32 3z m69 -328 c12 -53 12 -59 -5 -71 -10 -7 -28 -13 -41 -13 -23 0 -23 2
-17 53 7 52 30 101 43 92 4 -2 13 -30 20 -61z"/>
<path d="M1746 1245 c-13 -7 -27 -11 -30 -7 -3 3 -6 -2 -6 -11 0 -9 -4 -17 -9
-17 -6 0 -25 -13 -43 -30 -18 -16 -39 -30 -46 -30 -8 0 -26 -6 -40 -14 -15 -8
-44 -18 -65 -21 -34 -5 -40 -11 -58 -53 -14 -31 -18 -57 -14 -77 14 -70 16
-103 6 -110 -6 -3 -11 -15 -11 -25 0 -10 -11 -39 -24 -64 l-24 -45 21 -43 c11
-24 27 -51 35 -60 8 -10 11 -18 5 -18 -5 0 -8 -26 -7 -60 3 -60 44 -160 66
-160 5 0 16 -7 25 -15 8 -8 19 -13 24 -10 5 4 9 1 9 -5 0 -7 25 -10 75 -8 41
2 75 6 75 10 0 4 12 19 27 33 15 14 24 25 20 25 -4 0 2 16 12 36 25 47 18 88
-22 127 -24 23 -36 28 -59 23 -18 -3 -27 -2 -23 4 3 6 -1 10 -9 10 -9 0 -16 5
-16 12 0 23 45 77 68 83 13 3 36 17 50 30 15 14 30 25 34 25 15 0 8 72 -9 100
-18 32 -57 53 -82 46 -9 -3 -23 -1 -31 4 -13 9 -9 16 20 42 144 130 152 138
157 177 6 47 -8 75 -46 94 -25 12 -34 13 -55 2z"/>
<path d="M2311 1223 c-17 -8 -33 -24 -36 -34 -4 -11 -15 -24 -26 -29 -10 -6
-19 -17 -19 -25 0 -8 -13 -30 -30 -48 -16 -19 -30 -40 -30 -46 0 -6 -5 -11
-11 -11 -5 0 -8 -4 -5 -8 3 -5 -6 -15 -19 -22 -14 -7 -25 -19 -25 -27 0 -7 -4
-13 -10 -13 -14 0 -31 -75 -29 -128 2 -36 11 -58 36 -91 18 -24 33 -47 33 -51
0 -4 10 -10 22 -13 21 -6 21 -7 5 -24 -11 -13 -33 -19 -74 -21 -70 -3 -118
-24 -127 -54 -10 -40 -6 -72 12 -94 34 -40 76 -54 179 -57 97 -4 131 4 171 40
7 7 19 13 26 13 7 0 22 19 34 42 23 47 41 158 25 158 -6 0 -8 11 -5 25 2 14 0
25 -6 25 -6 0 -13 13 -17 29 -3 16 -14 38 -23 49 -9 11 -24 29 -33 39 -10 13
-14 35 -13 66 3 42 9 52 64 107 33 33 61 66 61 75 5 65 0 95 -16 95 -8 0 -15
6 -15 13 0 8 -15 18 -34 24 -26 8 -41 7 -65 -4z"/>
<path d="M2943 1209 c-20 -13 -51 -20 -92 -21 -33 -1 -61 -4 -61 -7 0 -5 -44
-27 -95 -47 -11 -4 -37 -9 -57 -10 -21 -1 -40 -3 -43 -4 -3 -2 -8 -3 -12 -4
-5 -1 -17 -7 -28 -13 -21 -12 -23 -59 -5 -93 15 -29 81 -57 134 -57 29 -1 52
-6 58 -14 10 -16 2 -156 -13 -214 -6 -22 -14 -61 -19 -87 -5 -27 -12 -54 -17
-60 -4 -7 -9 -22 -11 -33 -13 -103 -13 -115 -2 -115 6 0 18 -6 25 -14 8 -7 33
-16 56 -20 51 -8 87 13 102 60 6 16 13 31 16 34 8 7 10 20 15 98 3 37 7 78 10
92 3 14 8 58 11 99 3 41 9 79 12 84 4 6 7 20 8 31 3 62 48 106 106 106 11 0
19 5 19 10 0 6 8 10 18 10 28 0 55 55 49 100 -11 83 -114 133 -184 89z"/>
<path d="M4410 1220 c0 -5 -7 -10 -15 -10 -8 0 -15 -5 -15 -12 0 -6 -7 -19
-15 -27 -20 -23 -26 -91 -9 -98 8 -3 12 -8 9 -13 -2 -4 9 -22 26 -41 27 -30
36 -34 79 -34 36 0 54 5 68 21 29 31 44 63 36 76 -5 7 -7 25 -6 41 2 29 -10
46 -62 85 -30 22 -96 31 -96 12z"/>
<path d="M4812 1208 c-17 -13 -35 -32 -38 -42 -4 -11 -15 -29 -25 -40 -11 -11
-19 -27 -19 -36 0 -9 -10 -27 -22 -40 -13 -14 -22 -28 -20 -32 1 -5 -3 -8 -8
-8 -13 0 -7 -69 9 -98 6 -12 12 -39 13 -61 1 -23 5 -41 10 -41 5 0 6 -6 2 -12
-7 -11 -14 -138 -16 -315 -1 -35 -4 -63 -8 -63 -14 0 -3 -66 15 -94 24 -36 71
-56 133 -56 34 0 56 6 71 19 13 11 36 23 52 26 16 4 29 12 29 19 0 6 13 27 28
46 32 39 55 78 59 100 1 8 5 37 8 63 3 27 7 53 10 57 7 11 18 172 18 250 -1
77 -20 193 -39 235 -23 53 -95 123 -139 134 -60 16 -87 13 -123 -11z m129
-295 c5 -161 3 -245 -6 -278 l-12 -40 -7 55 c-4 30 -8 87 -9 127 -1 39 -5 75
-9 79 -12 11 -10 26 2 19 6 -3 10 1 10 10 0 17 17 55 26 55 2 0 5 -12 5 -27z"/>
<path d="M3964 1189 c-21 -17 -41 -34 -44 -38 -3 -4 -13 -10 -22 -14 -10 -3
-18 -15 -18 -25 0 -10 -13 -26 -30 -35 -17 -10 -30 -27 -30 -37 0 -10 -11 -31
-25 -46 -24 -26 -25 -31 -20 -117 3 -49 10 -98 16 -108 5 -11 7 -24 3 -30 -4
-6 -1 -15 6 -19 12 -8 17 -50 24 -225 6 -138 22 -166 98 -173 47 -4 56 -1 78
21 27 27 30 60 15 212 -9 97 -2 116 53 145 26 14 45 29 42 33 -3 5 3 13 13 18
9 6 17 16 17 23 0 8 7 16 15 20 8 3 15 16 15 28 0 13 6 32 13 43 31 46 46 145
28 174 -6 9 -6 22 -1 31 6 11 5 21 -2 28 -7 7 -9 12 -5 12 18 0 -77 79 -103
85 -16 4 -32 11 -35 16 -12 19 -63 8 -101 -22z m76 -225 c11 -13 10 -23 -8
-60 -24 -48 -54 -57 -60 -19 -2 11 -8 30 -14 42 -8 17 -8 26 2 38 16 20 64 19
80 -1z"/>
<path d="M365 1173 c-22 -15 -35 -19 -43 -11 -5 5 -23 7 -40 3 -33 -7 -95 -49
-86 -58 3 -3 2 -12 -2 -19 -5 -7 -9 -17 -10 -23 -22 -147 -28 -199 -28 -245 1
-75 7 -121 16 -126 5 -3 6 -9 4 -13 -10 -15 50 -181 64 -181 5 0 11 -14 15
-30 4 -17 13 -30 21 -30 8 0 14 -4 14 -9 0 -12 76 -42 122 -47 21 -3 38 -1 38
5 0 5 9 7 20 4 11 -3 26 0 34 6 8 7 18 11 22 10 22 -4 32 3 50 36 10 19 21 35
25 35 3 0 14 28 24 63 9 34 21 73 25 87 10 30 23 184 22 257 0 28 -8 65 -17
82 -8 17 -12 31 -9 31 4 0 -1 9 -11 20 -10 11 -15 23 -12 26 10 10 -83 124
-101 124 -4 0 -14 6 -21 13 -21 21 -99 15 -136 -10z m76 -183 c10 0 39 -64 45
-100 6 -45 5 -175 -2 -195 -4 -11 -13 -27 -19 -35 -7 -8 -15 -27 -19 -42 -5
-22 -12 -28 -32 -28 -20 0 -25 4 -20 16 4 12 2 15 -9 10 -17 -6 -33 20 -42 67
-19 110 -21 249 -4 255 6 2 11 10 11 17 0 17 49 44 68 39 8 -2 18 -4 23 -4z"/>
<path d="M1189 1169 c-8 -5 -9 -9 -4 -9 7 0 7 -3 0 -8 -15 -11 -95 -120 -95
-129 0 -9 -41 -58 -82 -100 -17 -17 -25 -20 -35 -11 -7 6 -11 13 -8 16 2 3 -2
10 -10 16 -7 6 -16 25 -18 41 -6 48 -38 103 -66 114 -79 29 -124 23 -141 -20
-15 -35 -5 -112 15 -129 24 -20 103 -202 97 -223 -1 -4 8 -24 21 -45 55 -88
61 -112 65 -240 3 -116 5 -125 29 -153 52 -58 155 -24 159 52 5 108 6 135 4
139 -1 3 -3 39 -4 80 -2 63 2 86 26 144 15 37 28 76 28 86 0 9 12 39 27 66 14
27 34 65 44 86 10 20 22 38 26 40 9 4 43 99 43 121 0 9 -11 29 -25 45 -25 30
-67 39 -96 21z"/>
<path d="M3499 1105 c-20 -13 -40 -34 -44 -47 -4 -13 -9 -77 -11 -143 -1 -66
-5 -131 -8 -145 -3 -14 -11 -50 -17 -80 -17 -84 -37 -112 -54 -72 -5 9 -9 78
-11 152 -2 84 -7 136 -13 138 -6 2 -11 9 -11 16 0 15 -47 51 -77 58 -13 4 -23
2 -23 -4 0 -5 -4 -7 -9 -4 -15 10 -71 -15 -72 -32 -6 -75 17 -244 51 -373 19
-73 26 -89 50 -101 3 -2 13 -19 24 -40 14 -28 32 -42 77 -63 54 -24 63 -25 97
-14 20 6 41 19 47 28 15 26 44 114 45 137 0 11 4 24 9 30 4 5 16 43 26 84 9
41 20 80 24 85 4 6 8 32 9 58 0 27 5 54 10 60 5 7 12 27 16 45 3 17 9 45 12
62 11 52 -4 95 -49 144 -24 25 -48 46 -53 45 -5 0 -25 -11 -45 -24z"/>
<path d="M4311 861 c-31 -27 -40 -98 -17 -133 30 -46 44 -113 39 -195 -8 -142
-6 -163 12 -183 28 -31 75 -50 103 -43 54 13 97 90 82 144 -5 18 -7 36 -4 40
3 5 2 14 -2 20 -9 15 -15 80 -17 197 -2 76 -5 96 -19 106 -10 7 -18 18 -18 23
0 19 -25 31 -80 38 -47 6 -58 4 -79 -14z"/>
</g>
</svg>
